<svg width="772" height="240" viewBox="0 0 772 240" fill="none" xmlns="http://www.w3.org/2000/svg">
<circle cx="94.4167" cy="120.028" r="85.9167" stroke="black" stroke-width="9.5"/>
<path d="M30.002 124.079C32.0718 156.994 59.0137 183.161 92.248 184H30.002V124.079ZM158.001 184H95.4824C129.831 183.164 157.473 155.274 157.91 120.828L157.915 120C157.915 85.1782 130.112 56.8497 95.4951 56H158.001V184ZM93.8945 64.9805C124.281 64.9807 148.915 89.6137 148.915 120C148.915 150.386 124.281 175.02 93.8945 175.021C63.5082 175.02 38.8753 150.386 38.875 120C38.8753 89.6137 63.5082 64.9807 93.8945 64.9805ZM71.9951 98.8184L62.9336 119.745L71.9951 140.672L93.873 149.34L115.751 140.672L124.813 119.745L115.751 98.8184L93.873 90.1504L71.9951 98.8184ZM92.293 56C59.032 56.8167 32.064 83.0007 30.002 115.938V56H92.293Z" fill="black"/>
<path d="M225.953 98.3164C234.648 87.8958 245.104 82.6855 257.318 82.6855C271.673 82.6855 282.783 87.7923 290.65 98.0059C298.518 108.15 302.451 121.883 302.451 139.205C302.451 157.217 298.035 171.467 289.201 181.957C280.437 192.378 269.361 197.588 255.973 197.588C244.103 197.588 234.096 193.896 225.953 186.512V195H206.389V43.2461H225.953V98.3164ZM225.953 168.914C234.303 177.816 243.896 182.268 254.73 182.268C263.15 182.268 269.844 178.679 274.812 171.502C279.781 164.256 282.266 153.49 282.266 139.205C282.266 125.679 279.919 115.431 275.227 108.461C270.534 101.422 263.978 97.9023 255.559 97.9023C244.724 97.9023 234.855 104.182 225.953 116.742V168.914ZM343.961 195H324.396V43.2461H343.961V195ZM442.404 166.119V141.793H429.051C400.757 141.793 386.609 149.488 386.609 164.877C386.609 170.467 388.68 174.78 392.82 177.816C396.961 180.784 402.551 182.268 409.59 182.268C416.008 182.268 422.219 180.818 428.223 177.92C434.227 175.021 438.954 171.088 442.404 166.119ZM442.404 183.717C432.467 192.964 419.665 197.588 404 197.588C393.096 197.588 384.125 194.655 377.086 188.789C370.047 182.854 366.527 175.229 366.527 165.912C366.527 140.24 388.645 127.404 432.881 127.404H442.404C442.404 119.537 441.99 113.844 441.162 110.324C440.334 106.736 438.022 103.768 434.227 101.422C430.431 99.0755 424.393 97.9023 416.111 97.9023C398.721 97.9023 389.749 104.113 389.197 116.535H369.736C371.186 93.9688 386.989 82.6855 417.146 82.6855C431.225 82.6855 442.197 85.4805 450.064 91.0703C457.932 96.6602 461.865 107.633 461.865 123.988V195H442.404V183.717ZM578.01 195H480.705V178.438L549.129 101.732H484.742V85.1699H574.594V101.732L506.17 178.438H578.01V195ZM666.412 166.119V141.793H653.059C624.764 141.793 610.617 149.488 610.617 164.877C610.617 170.467 612.688 174.78 616.828 177.816C620.969 180.784 626.559 182.268 633.598 182.268C640.016 182.268 646.227 180.818 652.23 177.92C658.234 175.021 662.962 171.088 666.412 166.119ZM666.412 183.717C656.475 192.964 643.673 197.588 628.008 197.588C617.104 197.588 608.133 194.655 601.094 188.789C594.055 182.854 590.535 175.229 590.535 165.912C590.535 140.24 612.653 127.404 656.889 127.404H666.412C666.412 119.537 665.998 113.844 665.17 110.324C664.342 106.736 662.03 103.768 658.234 101.422C654.439 99.0755 648.4 97.9023 640.119 97.9023C622.729 97.9023 613.757 104.113 613.205 116.535H593.744C595.193 93.9688 610.997 82.6855 641.154 82.6855C655.232 82.6855 666.205 85.4805 674.072 91.0703C681.939 96.6602 685.873 107.633 685.873 123.988V195H666.412V183.717ZM771.895 102.975C769.134 102.146 765.166 101.732 759.99 101.732C750.053 101.732 741.53 106.943 734.422 117.363V195H714.857V85.1699H734.422V100.49C742.634 88.6204 752.158 82.6855 762.992 82.6855C765.753 82.6855 768.72 82.9616 771.895 83.5137V102.975Z" fill="black"/>
</svg>
